HIERARCHY
ROOT hip
{
	OFFSET 0.000000 0.000000 0.000000 
	CHANNELS 6 Xposition Yposition Zposition Xrotation Zrotation Yrotation
	JOINT abdomen
	{
		OFFSET 0.000000 3.402643 0.000000 
		CHANNELS 3 Xrotation Zrotation Yrotation
		JOINT chest
		{
			OFFSET 0.000000 8.438565 -0.680529 
			CHANNELS 3 Xrotation Zrotation Yrotation
			JOINT neck
			{
				OFFSET 0.000000 10.207942 -0.272212 
				CHANNELS 3 Xrotation Zrotation Yrotation
				JOINT head
				{
					OFFSET 0.000000 3.130431 0.000000 
					CHANNELS 3 Xrotation Zrotation Yrotation
					End Site
					{
						OFFSET 0.000000 3.130435 0.000000 
					}
				}
			}
			JOINT lCollar
			{
				OFFSET 3.470700 6.669187 -0.816635 
				CHANNELS 3 Yrotation Zrotation Xrotation
				JOINT lShldr
				{
					OFFSET 3.198488 0.000000 0.000000 
					CHANNELS 3 Zrotation Yrotation Xrotation
					JOINT lForeArm
					{
						OFFSET 10.139888 0.000000 0.000000 
						CHANNELS 3 Yrotation Zrotation Xrotation
						JOINT lHand
						{
							OFFSET 8.370511 0.000000 0.000000 
							CHANNELS 3 Zrotation Yrotation Xrotation
							End Site
							{
								OFFSET 4.083176 0.000000 0.000000 
							}
						}
					}
				}
			}
			JOINT rCollar
			{
				OFFSET -3.470700 6.669187 -0.816635 
				CHANNELS 3 Yrotation Zrotation Xrotation
				JOINT rShldr
				{
					OFFSET -3.198488 0.000000 0.000000 
					CHANNELS 3 Zrotation Yrotation Xrotation
					JOINT rForeArm
					{
						OFFSET -10.139888 0.000000 0.000000 
						CHANNELS 3 Yrotation Zrotation Xrotation
						JOINT rHand
						{
							OFFSET -8.370511 0.000000 0.000000 
							CHANNELS 3 Zrotation Yrotation Xrotation
							End Site
							{
								OFFSET -4.083176 0.000000 0.000000 
							}
						}
					}
				}
			}
		}
	}
	JOINT lThigh
	{
		OFFSET 5.308129 -1.633274 1.361059 
		CHANNELS 3 Xrotation Zrotation Yrotation
		JOINT lShin
		{
			OFFSET -2.041588 -20.007561 0.000000 
			CHANNELS 3 Xrotation Zrotation Yrotation
			JOINT lFoot
			{
				OFFSET 0.000000 -19.190928 -1.224953 
				CHANNELS 3 Xrotation Yrotation Zrotation
				End Site
				{
					OFFSET 0.000000 -2.449906 4.627600 
				}
			}
		}
	}
	JOINT rThigh
	{
		OFFSET -5.308129 -1.633274 1.361059 
		CHANNELS 3 Xrotation Zrotation Yrotation
		JOINT rShin
		{
			OFFSET 2.041588 -20.007561 0.000000 
			CHANNELS 3 Xrotation Zrotation Yrotation
			JOINT rFoot
			{
				OFFSET 0.000000 -19.190928 -1.224953 
				CHANNELS 3 Xrotation Yrotation Zrotation
				End Site
				{
					OFFSET 0.000000 -2.449906 4.627600 
				}
			}
		}
	}
}
MOTION
Frames: 11
Frame Time: 0.033333
-0.083085 48.553459 2.297439 -10.994531 -0.982426 9.503223 0.000000 0.000000 0.000000 13.567816 4.410431 6.993961 30.226940 -0.683590 -0.195415 -18.957001 -0.048790 2.255859 -4.450502 15.740751 24.994587 -93.728416 5.640553 0.661334 -51.844769 3.682863 80.966278 -16.866570 -10.232149 -55.599846 -16.648207 -11.788941 20.829134 71.507996 -0.605021 72.013641 32.163071 -36.778503 30.421082 37.161263 -5.438744 -81.154388 15.621999 13.261024 21.732059 22.125027 1.609523 -0.302751 10.166030 -13.197183 5.136602 31.452656 5.273085 2.450514 3.158789 0.019398 -0.573173 9.294273 -8.419868 13.727039 
-0.187375 48.433830 2.260162 -10.530273 -1.645232 9.867306 0.000000 0.000000 0.000000 13.097598 4.864665 7.126076 29.688576 -0.371092 -0.166075 -18.956112 -0.029279 2.021484 -4.498217 16.115606 24.991344 -93.705917 5.158413 0.625788 -51.673840 3.311649 81.686203 -16.604712 -9.893104 -55.811337 -16.761076 -11.952356 20.754616 71.672951 -0.943488 72.187859 32.978512 -37.383549 31.105198 36.943050 -5.128374 -81.088120 13.393324 14.793128 22.508070 25.063707 1.488559 -0.478571 10.016434 -14.612915 4.573530 31.180172 6.307954 2.762054 2.664247 -0.536377 -0.741713 9.654214 -7.936506 15.237166 
-0.276637 48.330486 2.238994 -10.271611 -2.278168 10.164053 0.000000 0.000000 0.000000 12.814126 5.318732 7.248926 29.297144 -0.097656 -0.156266 -19.003286 0.019521 1.816409 -4.508820 16.378719 24.993965 -93.742882 4.758031 0.628807 -51.446545 3.270951 81.991676 -16.498451 -9.729927 -55.912159 -16.770876 -12.046195 20.719496 71.796516 -1.208295 72.312279 33.617722 -37.902248 31.647524 36.723858 -5.013072 -81.038940 11.664994 16.149776 23.194019 27.425781 1.482424 -0.639340 9.745512 -15.855310 4.417230 31.161440 7.274992 3.052927 2.191038 -1.032073 -0.895147 9.578084 -7.740859 15.351509 
-0.325873 48.283318 2.256336 -10.424840 -2.691333 10.186906 0.000000 0.000000 0.000000 12.925326 5.676307 7.321683 29.179811 -0.048828 -0.146493 -19.094641 0.214732 1.845727 -4.264944 16.284172 24.997225 -93.644135 4.596069 0.568832 -51.210274 3.512135 81.771629 -16.537064 -9.869274 -55.890987 -16.484856 -12.093515 20.774702 71.853424 -1.268871 72.368362 33.898350 -38.194645 31.970579 36.558208 -5.123446 -80.996628 11.313953 16.989979 23.593151 28.319639 1.370023 -0.708808 9.371651 -16.458235 4.674107 31.630337 7.929565 3.232434 1.789845 -1.361926 -0.994193 9.138367 -7.762041 14.074096 
-0.319468 48.321850 2.325609 -11.125752 -2.790880 9.786982 0.000000 0.000000 0.000000 13.579863 5.889140 7.344080 29.376169 -0.380858 -0.175842 -19.216093 0.575745 2.207214 -3.621062 15.586717 24.988735 -93.204353 4.781098 0.319594 -50.991425 3.892369 81.101234 -16.667566 -10.198513 -55.793362 -15.807597 -12.032503 20.949717 71.759995 -1.055051 72.263077 33.798515 -38.186317 32.189159 36.510487 -5.299814 -80.983864 12.912199 17.134230 23.634924 27.281078 0.974391 -0.749132 9.016136 -16.009333 5.263555 32.673653 8.046082 3.288890 1.431205 -1.431437 -1.032555 8.783232 -7.633254 12.278955 
-0.235985 48.438450 2.395901 -11.918532 -2.476916 9.285903 0.000000 0.000000 0.000000 14.332858 5.793044 7.283802 29.807520 -0.791011 -0.205193 -19.253342 0.741419 2.607709 -3.141190 14.603839 24.996790 -92.588448 5.121219 -0.025873 -50.950359 4.099440 80.184990 -16.899162 -10.176723 -55.765579 -15.232124 -11.834856 21.151335 71.416222 -0.667764 71.962624 33.487316 -37.816322 32.414459 36.743225 -5.273275 -81.003380 15.522556 16.297234 23.125591 24.745720 0.623445 -0.672930 9.031991 -14.577379 5.667526 33.546642 7.459367 3.122825 1.491870 -1.121721 -0.954190 8.832318 -7.286051 12.340284 
-0.122970 48.559933 2.425701 -12.336909 -2.044624 9.038902 0.000000 0.000000 0.000000 14.726986 5.561282 7.222577 30.198936 -0.966790 -0.214978 -19.250128 0.565752 2.754061 -3.102709 13.946531 24.995604 -92.246284 5.396265 -0.211338 -51.022240 4.102077 79.468231 -17.071596 -9.858825 -55.827118 -15.075741 -11.616597 21.246124 70.988182 -0.274210 71.615578 33.188656 -37.273048 32.499016 37.006519 -5.241611 -81.026550 17.515959 15.047586 22.458082 22.141722 0.643553 -0.503288 9.160923 -13.153447 6.009695 33.754620 6.659335 2.878067 1.858464 -0.681271 -0.827198 9.384498 -6.747078 14.479071 
-0.028317 48.643330 2.400312 -12.128766 -1.716669 9.046775 0.000000 0.000000 0.000000 14.497529 5.329338 7.170238 30.384380 -0.898431 -0.224735 -19.243670 0.097558 2.568372 -3.457631 14.096840 24.990496 -92.394028 5.546936 -0.114114 -51.221905 3.751403 79.552132 -16.982943 -9.445229 -55.952827 -15.373989 -11.538184 21.198114 70.797173 0.008182 71.435104 32.837643 -36.688675 31.982983 37.127792 -5.473889 -81.072510 18.164438 13.893464 21.860250 20.293558 1.044021 -0.289531 9.398657 -12.312874 6.275287 32.931854 5.994731 2.667345 2.701075 -0.087275 -0.640193 9.220728 -7.804683 13.198704 
0.015182 48.675434 2.351486 -11.655316 -1.542526 9.173142 0.000000 0.000000 0.000000 14.031845 5.135772 7.148107 30.305424 -0.751948 -0.205189 -19.231989 -0.331767 2.285174 -3.839823 14.685713 24.991997 -92.708092 5.575843 0.069370 -51.447872 3.211268 80.250862 -16.813931 -9.235159 -56.015343 -15.794436 -11.621632 21.085449 70.905853 0.150330 71.468697 32.469845 -36.316738 31.004961 37.103760 -5.809687 -81.117699 17.799202 13.261109 21.604498 19.682899 1.453673 -0.188476 9.632207 -12.100297 6.427882 31.890570 5.614596 2.548493 3.466457 0.282136 -0.499520 8.808537 -8.917647 11.241802 
-0.000747 48.659073 2.310841 -11.267390 -1.484313 9.260751 0.000000 0.000000 0.000000 13.712398 5.009912 7.137507 29.992533 -0.673824 -0.195414 -19.246571 -0.487947 2.119147 -4.001495 15.213251 24.993721 -92.844978 5.482316 0.138935 -51.613846 2.691014 81.203262 -16.767023 -9.348083 -55.921432 -16.055767 -11.762552 20.974255 71.239601 0.123282 71.681427 32.224567 -36.340057 29.936146 36.966904 -6.045034 -81.140961 16.875561 13.287794 21.665348 20.445765 1.600112 -0.174963 9.767770 -12.443373 6.249566 31.312548 5.535951 2.523667 3.722452 0.263483 -0.489354 8.737126 -8.865036 11.203837 
-0.044865 48.613071 2.285200 -11.185933 -1.445274 9.377903 0.000000 0.000000 0.000000 13.740847 4.874666 7.096889 29.494387 -0.644528 -0.195410 -19.253439 -0.429420 2.021501 -4.028976 15.393810 24.995756 -92.647728 5.230743 0.012733 -51.630444 2.345332 81.927048 -16.989002 -9.599289 -55.755447 -16.162844 -11.851646 20.926882 71.538452 -0.037271 71.904106 32.226524 -36.721817 29.170000 36.702885 -6.015794 -81.133492 15.766356 13.777852 21.964018 22.346901 1.522284 -0.304299 9.791744 -13.156602 5.822292 31.461466 5.604973 2.547324 3.381752 0.048548 -0.534971 9.181256 -8.299605 12.393540 
